<svg width="708" height="915" fill="none" xmlns="http://www.w3.org/2000/svg"><g opacity=".2"><path d="M140.113 821.846c-7.085 0-14.189-.386-21.281-1.158-19.701-2.145-39.387-7.276-58.515-15.259-33.523-13.989-65.738-36.153-95.751-65.879-22.355-22.206-42.553-50.995-61.746-88.012-18.631-35.939-34.062-75.258-46.702-108.979-6.056-16.161-12.682-33.328-19.919-50.888-15.278 17.117-31.89 35.243-49.485 52.455-26.782 26.201-51.79 46.316-76.454 61.494-30.346 18.677-59.816 29.814-90.088 34.05-16.67 2.333-33.668 2.482-50.518.44-17.889-2.168-36.172-6.867-54.34-13.97-39.674-15.538-69.875-45.991-87.339-88.074-15.859-38.221-20.084-83.779-11.895-128.29 3.904-21.204 10.465-41.372 19.503-59.942 9.378-19.269 21.173-36.275 35.06-50.548 14.696-15.105 31.523-26.9 50.016-35.063 19.782-8.732 41.429-13.267 64.342-13.481 17.002-.157 33.461 1.629 48.938 5.303a185.356 185.356 0 0143.253 16.203c26.136 13.714 49.768 33.699 72.237 61.1 20.199 24.63 39.155 54.941 57.958 92.673 9.619 19.304 19.131 40.362 29.034 64.354 4.691-5.261 9.287-10.461 13.787-15.55l.997-1.128c12.346-13.966 25.781-31.014 40.004-49.06 28.441-36.092 60.679-77.001 97.964-111.304 43.191-39.739 84.87-62.809 127.415-70.528 46.323-8.446 93.724 2.328 133.479 30.33 43.673 30.766 73.816 79.387 82.705 133.402 4.508 28.06-.424 57.205-14.257 84.289a159.352 159.352 0 01-9.421 16.031c8.687 9.501 16.02 19.697 21.797 30.384 10.312 19.07 15.928 39.961 16.693 62.09.867 25.092-4.504 52.138-15.97 80.388-15.462 38.447-37.3 70.165-64.908 94.264-13.271 11.584-27.796 21.257-43.169 28.755a188.15 188.15 0 01-48.143 15.878 193.724 193.724 0 01-35.281 3.23zm-303.398-330.749c6.473 15.706 13.114 32.67 20.065 51.217 25.761 68.739 57.498 146.302 108.283 196.739 29.948 29.661 62.087 51.775 95.525 65.73 37.338 15.58 76.99 20.126 114.676 13.141 68.678-12.728 125.427-63.195 155.696-138.465 21.628-53.293 21.395-101.026-.692-141.878-5.991-11.076-13.374-21.101-21.606-30.082-11.94 17.687-27.478 33.259-44.988 44.897-17.389 11.554-36 18.769-53.821 20.86-18.982 2.225-36.852-1.476-51.675-10.705-15.076-9.386-25.628-21.732-30.522-35.698-4.465-12.751-4.163-26.24.868-39.009 5.395-13.692 15.84-25.184 29.405-32.365 14.892-7.883 32.517-10.131 50.976-6.507 18.772 3.69 41.858 13.408 61.75 26.006 14.418 9.126 27.168 19.686 37.889 31.298 18.566-27.834 29.474-62.569 23.525-99.616-8.855-53.828-38.895-102.281-82.415-132.94-39.598-27.895-86.816-38.627-132.948-30.215C21.181 260.839-50.582 351.906-108.249 425.08c-14.23 18.058-27.669 35.11-40.029 49.091l-.998 1.128a5132.91 5132.91 0 01-14.009 15.798zm-249.634-239.659c-.692 0-1.38.004-2.076.008-102.824.952-154.889 85.955-168.233 158.456-14.628 79.467 10.052 180.826 98.794 215.58 140.743 55.025 243.663-48.579 320.335-134.534-22.665-54.91-51.282-113.571-87.022-157.156-45.429-55.396-98.377-82.354-161.798-82.354zm604.914 196.536c-32.162 0-54.639 19.384-62.813 40.118-8.503 21.567-5.25 52.291 29.366 73.851 28.92 18.011 68.074 14.219 104.736-10.143 16.505-10.969 32.364-26.389 44.836-44.897-30.801-33.278-73.247-52.123-99.349-57.25-5.846-1.143-11.447-1.679-16.776-1.679z" fill="url(#paint0_linear_1114_16)"/><path d="M133.896 818.102a199.91 199.91 0 01-25.433-1.625c-19.53-2.497-38.99-7.887-57.846-16.023-33.244-14.345-65.21-36.612-95.02-66.182-22.493-22.385-42.791-51.117-62.057-87.836-19.055-36.317-35.021-76.791-46.804-107.993-5.873-15.553-11.719-30.299-17.553-44.285-15.504 17.018-32.433 35.159-50.364 52.31-26.152 25.012-50.529 44.186-74.535 58.615-29.52 17.744-58.153 28.27-87.531 32.181a188.636 188.636 0 01-24.889 1.644c-25.337 0-51.038-5.051-76.715-15.102-38.569-15.129-68.074-44.492-85.332-84.912-15.66-36.68-20.198-80.53-12.777-123.473 3.544-20.516 9.669-40.083 18.206-58.167 8.843-18.735 20.042-35.343 33.278-49.367 13.993-14.823 30.063-26.518 47.765-34.757 18.921-8.805 39.659-13.627 61.635-14.322 61.842-1.962 114.064 22.381 159.645 74.416 32.399 36.987 62.025 88.345 91.839 159.604 3.919-4.305 7.769-8.561 11.551-12.74l1.758-1.942c12.315-13.611 25.708-30.284 39.893-47.932 27.806-34.601 59.322-73.821 95.647-106.655 42.064-38.019 82.594-60.11 123.905-67.527 45.348-8.19 91.797 2.313 130.791 29.581 20.791 14.54 38.39 32.949 52.299 54.715 14.284 22.355 23.831 46.965 28.369 73.143 4.71 27.176.172 55.45-13.133 81.773a150.785 150.785 0 01-5.009 9.103c12.166 11.956 22.087 25.184 29.329 39.219 9.833 19.063 14.945 39.828 15.182 61.724.272 24.782-5.708 51.339-17.771 78.932l-.332-.146.332.146c-16.256 37.181-38.58 67.561-66.353 90.302-26.912 22.034-57.644 35.885-91.342 41.181a195.758 195.758 0 01-30.628 2.397zm-304.174-324.533c5.884 14.085 11.772 28.943 17.69 44.622 31.738 84.044 62.37 149.464 108.693 195.573 29.741 29.504 61.639 51.718 94.794 66.028 36.723 15.848 75.977 21.109 113.518 15.213 69.136-10.862 124.945-57.407 157.145-131.055 22.783-52.115 23.662-99.23 2.607-140.036-7.788-15.098-17.87-28.04-29.007-39.012-11.917 19.827-28.487 37.25-47.497 49.779-19.95 13.144-40.599 19.816-59.693 19.816-14.299 0-27.726-3.739-39.342-11.302-13.645-8.885-23.046-20.538-27.191-33.702-3.792-12.059-3.15-24.851 1.862-36.99 5.64-13.657 16.329-25.096 30.097-32.208 15.171-7.834 32.976-9.933 51.488-6.064 19.083 3.988 42.217 14.101 61.884 27.05 10.358 6.821 19.801 14.399 28.197 22.581 15.373-25.781 23.704-57.021 17.939-90.253-8.927-51.488-38.221-97.918-80.37-127.392-38.833-27.153-85.091-37.618-130.248-29.462-92.73 16.65-162.81 103.852-219.12 173.921-14.188 17.656-27.593 34.333-39.919 47.963l-1.759 1.943a3703.213 3703.213 0 01-11.768 12.987zm-244.928-234.138c-2.267 0-4.546.038-6.84.111-98.889 3.135-148.099 86.001-160.196 156.009-13.19 76.355 11.746 173.884 97.663 207.586 26.77 10.479 52.18 15.079 76.267 15.079 99.489 0 176.727-78.397 237.193-144.792-29.829-71.346-59.452-122.735-91.847-159.718-43.742-49.928-93.606-74.275-152.24-74.275zm602.188 193.611c-31.886 0-54.493 19.117-63.004 39.728-8.415 20.382-6.255 49.428 25.054 69.81 26.874 17.499 63.6 14.314 98.239-8.511 17.878-11.783 34.907-28.946 47.383-49.676-30.644-29.948-69.103-45.111-89.909-49.458-6.19-1.292-12.124-1.893-17.763-1.893z" fill="url(#paint1_linear_1114_16)"/><path d="M127.843 814.461c-9.955 0-19.93-.731-29.856-2.195-19.357-2.852-38.592-8.499-57.177-16.788-32.965-14.704-64.686-37.071-94.29-66.479-49.867-49.738-81.987-122.954-109.274-194.667a1199.055 1199.055 0 00-15.075-37.744c-73.667 79.096-172.966 177.542-307.286 124.892-37.437-14.712-66.23-42.947-83.271-81.654-15.45-35.098-20.313-77.192-13.695-118.534 3.177-19.835 8.859-38.825 16.888-56.435 8.304-18.211 18.898-34.444 31.488-48.239 27.566-30.208 63.685-47.405 104.453-49.729 59.226-3.38 109.9 18.286 154.916 66.23 21.188 22.569 40.828 50.495 60.044 85.378 12.564 22.803 24.691 48.136 36.715 76.73 3.113-3.345 6.175-6.649 9.199-9.91l2.512-2.711c12.281-13.251 25.643-29.535 39.789-46.774 27.168-33.113 57.961-70.643 93.327-102.017 40.932-36.31 80.316-57.422 120.395-64.537 46.564-8.327 93.835 3.208 133.104 32.479 18.819 14.028 34.766 31.343 47.402 51.462 12.972 20.661 21.8 43.272 26.231 67.205 4.879 26.343.673 53.794-12.154 79.387-.34.677-.684 1.354-1.036 2.03 16.195 14.254 29.022 30.629 37.636 48.193 9.348 19.055 13.925 39.693 13.607 61.341-.359 24.45-6.985 50.483-19.697 77.38-16.972 35.904-39.766 64.961-67.749 86.356-27.08 20.707-57.839 33.393-91.423 37.713a202.777 202.777 0 01-25.723 1.637zm-305.106-318.488c5.077 12.097 10.135 24.771 15.201 38.091 27.257 71.637 59.338 144.769 109.102 194.407 29.539 29.347 61.188 51.66 94.064 66.326 36.119 16.112 74.975 22.088 112.359 17.282 68.758-8.84 125.079-52.75 158.594-123.649l.337.16-.337-.16c24.037-50.854 26.09-97.307 6.095-138.075-9.467-19.3-22.749-35.151-37.285-47.917-11.612 22.014-29.126 41.345-49.577 54.654-32.792 21.338-67.301 23.857-92.317 6.74-12.25-8.384-20.535-19.346-23.957-31.699-3.146-11.359-2.179-23.44 2.803-34.937 5.899-13.626 16.86-25.012 30.861-32.062 15.488-7.8 33.496-9.749 52.085-5.647 19.698 4.347 42.335 14.601 62.102 28.136a191.118 191.118 0 0117.862 13.821c12.334-23.578 18.375-51.378 12.911-80.886-18.516-100.002-110.867-167.54-205.876-150.55-89.94 15.966-158.327 99.318-213.279 166.291-14.154 17.25-27.52 33.541-39.816 46.808l-2.511 2.711a3107.8 3107.8 0 01-9.421 10.155zm-240.153-228.687c-3.895 0-7.826.115-11.794.34-94.99 5.418-141.325 86.227-152.137 153.781-12.104 75.609 13.041 166.581 96.504 199.381 26.186 10.265 51.056 14.762 74.65 14.762 97.138 0 172.874-76.168 232.043-139.715-30.353-72.096-62.163-125.389-96.737-162.211-41.831-44.557-88.567-66.338-142.529-66.338zm599.298 190.821c-31.684 0-54.49 18.875-63.371 39.383-8.305 19.178-7.18 46.518 20.894 65.727 24.76 16.941 58.959 14.417 91.491-6.748 19.228-12.514 37.365-31.439 49.527-54.425-28.25-24.649-61.104-37.701-79.811-41.831-6.534-1.441-12.793-2.106-18.73-2.106z" fill="url(#paint2_linear_1114_16)"/><path d="M122.029 813.656c-11.547 0-23.12-.964-34.594-2.883-19.181-3.208-38.194-9.115-56.512-17.553-32.681-15.06-64.158-37.529-93.556-66.781-22.775-22.764-43.279-51.378-62.679-87.485-15.362-28.59-29.86-61.287-47.007-106.023a1074.413 1074.413 0 00-12.514-31.225c-35.526 37.25-75.598 77.853-123.087 104.953-27.868 15.905-54.83 25.222-82.422 28.491-31.233 3.697-63.234-.772-95.116-13.29-36.276-14.28-64.335-41.356-81.15-78.297-15.232-33.465-20.431-73.755-14.643-113.456 5.685-39.001 21.751-75.2 45.233-101.929 26.094-29.703 60.5-47.168 99.506-50.513 28.307-2.424 55.323 1.284 80.292 11.034 24.596 9.6 48.128 25.421 69.948 47.015 21.36 21.142 41.895 48.64 61.039 81.726 13.939 24.099 27.558 51.879 40.641 82.901l6.806-7.15 3.261-3.425c12.253-12.881 25.581-28.771 39.689-45.597 26.526-31.626 56.593-67.473 90.999-97.391 39.8-34.608 78.033-54.745 116.882-61.559 45.21-7.998 91.216 3.044 129.54 31.091 18.36 13.435 33.97 30.032 46.407 49.329 12.755 19.797 21.526 41.471 26.071 64.43 4.715 23.826 1.656 48.632-8.843 72.069 20.707 16.26 36.719 35.832 46.572 57.02 8.866 19.059 12.915 39.579 12.035 60.982-.99 24.125-8.277 49.641-21.658 75.835l-.341-.176.341.176c-17.687 34.627-40.948 62.354-69.145 82.415-27.245 19.384-58.03 30.903-91.503 34.237a202.436 202.436 0 01-20.492 1.029zm-306.3-312.535a1053.642 1053.642 0 0112.663 31.542c27.035 70.536 59.013 142.765 109.514 193.237 29.333 29.187 60.737 51.603 93.338 66.628 36.035 16.605 73.446 23.116 111.201 19.35 68.402-6.817 125.24-48.101 160.043-116.243 25.329-49.592 28.564-95.399 9.612-136.148-10.533-22.649-27.31-41.723-46.197-56.642a146.326 146.326 0 01-2.03 4.267c-11.149 22.427-28.572 42.006-49.061 55.136-30.682 19.663-62.667 21.509-85.561 4.943-21.166-15.316-27.738-39.284-17.148-62.553 6.186-13.592 17.446-24.928 31.711-31.92 15.84-7.769 34.084-9.585 52.761-5.254 20.03 4.646 42.741 15.29 62.312 29.203a190.629 190.629 0 016.687 4.974c9.562-21.315 13.81-45.799 8.74-71.412-18.96-95.808-109.185-160.517-201.132-144.249-87.148 15.286-153.841 94.799-207.429 158.69-14.119 16.83-27.455 32.731-39.724 45.631l-3.261 3.426c-2.328 2.446-4.672 4.912-7.039 7.394zm-235.178-223.426c-5.59 0-11.252.245-16.999.738-91.124 7.815-134.545 86.651-144.046 151.792-10.529 72.211 14.861 159.256 95.315 190.932 130.703 51.305 228.044-44.744 300.021-120.212-31.03-73.767-64.434-127.832-101.653-164.677-39.709-39.307-83.249-58.573-132.638-58.573zm596.166 188.194c-31.554 0-54.623 18.654-63.914 39.07-10.43 22.917-3.953 46.526 16.899 61.617 22.63 16.375 54.294 14.517 84.701-4.971 19.95-12.785 39.216-33.717 50.857-59.265-22.343-17.495-47.561-29.19-68.853-34.13-6.871-1.591-13.45-2.321-19.69-2.321z" fill="url(#paint3_linear_1114_16)"/></g><g filter="url(#filter0_f_1114_16)"><path d="M412.649 591.225C174.235 650.451 81.204 400.361 139.287 272.971 211.892 113.734 55.517.152-103.879-11.933" stroke="url(#paint4_linear_1114_16)" stroke-width="50"/></g><defs><linearGradient id="paint0_linear_1114_16" x1="358.925" y1="241.164" x2="232.338" y2="1063.85" gradientUnits="userSpaceOnUse"><stop stop-color="#004FFF"/><stop offset=".402" stop-color="#CB06ED"/><stop offset=".709" stop-color="#FF0062"/><stop offset="1" stop-color="#FF8500"/></linearGradient><linearGradient id="paint1_linear_1114_16" x1="351.139" y1="254.45" x2="230.571" y2="1053.73" gradientUnits="userSpaceOnUse"><stop stop-color="#004FFF"/><stop offset=".402" stop-color="#CB06ED"/><stop offset=".709" stop-color="#FF0062"/><stop offset="1" stop-color="#FF8500"/></linearGradient><linearGradient id="paint2_linear_1114_16" x1="343.483" y1="267.643" x2="228.789" y2="1043.74" gradientUnits="userSpaceOnUse"><stop stop-color="#004FFF"/><stop offset=".402" stop-color="#CB06ED"/><stop offset=".709" stop-color="#FF0062"/><stop offset="1" stop-color="#FF8500"/></linearGradient><linearGradient id="paint3_linear_1114_16" x1="335.87" y1="278.019" x2="224.688" y2="1038.6" gradientUnits="userSpaceOnUse"><stop stop-color="#004FFF"/><stop offset=".402" stop-color="#CB06ED"/><stop offset=".709" stop-color="#FF0062"/><stop offset="1" stop-color="#FF8500"/></linearGradient><linearGradient id="paint4_linear_1114_16" x1="-217" y1="92.117" x2="-7.621" y2="-88.662" gradientUnits="userSpaceOnUse"><stop offset=".051" stop-color="#004FFF"/><stop offset="1" stop-color="#2295FF"/></linearGradient><filter id="filter0_f_1114_16" x="-394.77" y="-325.862" width="1102.45" height="1240.01" filterUnits="userSpaceOnUse" color-interpolation-filters="sRGB"><feFlood flood-opacity="0" result="BackgroundImageFix"/><feBlend in="SourceGraphic" in2="BackgroundImageFix" result="shape"/><feGaussianBlur stdDeviation="144.5" result="effect1_foregroundBlur_1114_16"/></filter></defs></svg>