<svg width="1184" height="427" fill="none" xmlns="http://www.w3.org/2000/svg"><path opacity=".5" fill-rule="evenodd" clip-rule="evenodd" d="M102.331 326.767l-.011-.005c-20.352-8.632-38.252-20.51-53.683-35.631l-.016-.016-.016-.015c-15.123-15.43-27.002-33.327-35.637-53.676l-.004-.011C4.317 216.726 0 194.66 0 171.235c0-23.414 4.16-45.175 12.505-65.26l.006-.015c8.636-20.352 20.52-38.104 35.653-53.234 15.436-15.434 33.345-27.32 53.713-35.653 20.392-8.648 42.462-12.96 66.185-12.96 24.024 0 46.247 4.311 66.642 12.96 20.365 8.331 38.123 20.217 53.256 35.653 15.435 15.128 27.473 32.879 36.109 53.234 8.652 20.389 12.969 42.307 12.969 65.732 0 23.425-4.317 45.343-12.969 65.732-8.638 20.358-20.676 38.26-36.109 53.691-15.131 15.129-32.882 27.01-53.234 35.644-20.097 8.655-42.023 12.97-65.75 12.97-23.729 0-45.951-4.315-66.645-12.962zm131.537-2.008c20.107-8.529 37.625-20.256 52.553-35.182 15.233-15.231 27.115-32.898 35.645-53.003 8.531-20.104 12.796-41.731 12.796-64.882 0-23.15-4.265-44.778-12.796-64.882-8.53-20.105-20.412-37.62-35.645-52.546-14.928-15.23-32.446-26.958-52.553-35.182-20.108-8.53-42.043-12.794-65.806-12.794-23.459 0-45.242 4.265-65.349 12.794-20.107 8.224-37.777 19.952-53.01 35.182C34.774 69.19 23.045 86.705 14.515 106.81c-8.226 19.8-12.339 41.275-12.339 64.425 0 23.151 4.265 44.93 12.796 65.339 8.53 20.105 20.26 37.772 35.188 53.003 15.233 14.926 32.903 26.653 53.01 35.182 20.412 8.529 42.347 12.794 65.806 12.794 23.459 0 45.089-4.265 64.892-12.794zm21.846-97.897l.008-.014c8.632-15.772 12.986-34.286 12.986-55.613 0-15.615-2.403-29.823-7.176-42.648-4.776-12.835-11.628-23.844-20.545-33.058l-.012-.012-.012-.013c-8.926-9.519-19.483-16.805-31.692-21.867-12.19-5.054-25.915-7.602-41.209-7.602-19.765 0-37.198 4.488-52.364 13.407l-.012.007c-14.868 8.623-26.624 20.81-35.276 36.615-8.335 15.78-12.537 34.149-12.537 55.171 0 15.916 2.401 30.427 7.173 43.557 5.087 13.156 11.946 24.322 20.56 33.532 8.922 9.215 19.48 16.354 31.695 21.419 12.513 5.063 26.093 7.606 40.761 7.606 20.389 0 37.963-4.494 52.805-13.398 14.882-8.928 26.49-21.271 34.84-37.074l.007-.015zm-129.238 44.895c-12.491-5.178-23.306-12.489-32.446-21.932-8.835-9.443-15.842-20.866-21.021-34.269-4.875-13.403-7.312-28.176-7.312-44.321 0-21.323 4.265-40.056 12.796-56.201 8.835-16.144 20.869-28.633 36.102-37.467 15.537-9.138 33.36-13.707 53.467-13.707 15.537 0 29.552 2.589 42.043 7.767 12.491 5.179 23.306 12.642 32.446 22.39 9.139 9.442 16.146 20.713 21.021 33.811 4.874 13.098 7.312 27.567 7.312 43.407 0 21.628-4.418 40.513-13.253 56.658-8.53 16.144-20.412 28.786-35.645 37.924-15.233 9.138-33.207 13.708-53.924 13.708-14.928 0-28.79-2.59-41.586-7.768zm293.585 52.149l-.019-.011c-17.976-10.537-32.402-24.649-43.253-42.318l-.012-.019-.011-.019c-10.565-18.02-15.837-38.051-15.837-60.043 0-21.988 5.27-41.725 15.849-59.15 10.555-17.69 24.997-31.66 43.29-41.893 18.321-10.554 38.65-15.819 60.94-15.819 22.884 0 43.372 5.259 61.404 15.823 18.29 10.233 32.729 24.202 43.282 41.889 10.58 17.425 15.849 37.162 15.849 59.15 0 21.992-5.271 42.023-15.836 60.043l-.008.014c-10.555 17.691-24.994 31.813-43.283 42.35l-.01.006c-18.028 10.256-38.36 15.363-60.941 15.363-22.581 0-43.06-5.107-61.385-15.355l-.019-.011zM583.83 163.468c-10.359-17.363-24.525-31.071-42.5-41.123-17.67-10.357-37.778-15.535-60.322-15.535-21.935 0-41.891 5.178-59.865 15.535-17.975 10.052-32.142 23.76-42.5 41.123-10.358 17.058-15.537 36.401-15.537 58.028 0 21.627 5.179 41.275 15.537 58.942 10.663 17.363 24.83 31.223 42.5 41.58 17.974 10.052 38.082 15.078 60.322 15.078 22.24 0 42.195-5.026 59.865-15.078 17.975-10.357 32.141-24.217 42.5-41.58 10.358-17.667 15.537-37.315 15.537-58.942 0-21.627-5.179-40.97-15.537-58.028zm-54.937 88.544l.006-.013c4.688-8.787 7.056-18.785 7.056-30.046 0-11.262-2.369-21.095-7.041-29.562-4.687-8.494-11.108-15.054-19.282-19.724l-.025-.014-.024-.015c-8.148-4.946-17.648-7.452-28.575-7.452-10.61 0-19.961 2.501-28.118 7.452l-.025.015-.025.014c-8.173 4.67-14.594 11.23-19.281 19.724-4.672 8.467-7.041 18.3-7.041 29.562 0 11.254 2.365 21.248 7.048 30.032 4.687 8.49 11.114 15.207 19.3 20.182 8.158 4.655 17.519 7.009 28.142 7.009 10.946 0 20.461-2.362 28.614-7.018 8.486-4.976 14.891-11.681 19.264-20.134l.007-.012zm-18.181 22.03c-8.53 4.873-18.432 7.31-29.704 7.31-10.968 0-20.717-2.437-29.247-7.31-8.531-5.179-15.233-12.185-20.108-21.019-4.874-9.138-7.311-19.495-7.311-31.07s2.437-21.78 7.311-30.614c4.875-8.833 11.577-15.687 20.108-20.561 8.53-5.178 18.279-7.767 29.247-7.767 11.272 0 21.174 2.589 29.704 7.767 8.53 4.874 15.233 11.728 20.107 20.561 4.875 8.834 7.312 19.039 7.312 30.614s-2.437 21.932-7.312 31.07c-4.57 8.834-11.272 15.84-20.107 21.019zm205.719 55.396l-.018-.01c-6.233-3.264-11.875-7.064-16.921-11.4V427h-63.761V109.66h64.218v17.036c4.97-4.314 10.452-8.079 16.445-11.294l.01-.005.009-.005c13.137-6.88 27.807-10.301 43.967-10.301 20.787 0 39.471 5.124 55.988 15.407 16.481 10.26 29.384 24.255 38.697 41.941 9.633 17.713 14.425 37.721 14.425 59.971 0 21.951-4.795 41.805-14.425 59.514-9.313 17.686-22.216 31.681-38.697 41.941-16.517 10.283-35.201 15.407-55.988 15.407-16.144 0-30.801-3.262-43.93-9.825l-.019-.009zm136.717-48.543c9.444-17.363 14.166-36.858 14.166-58.485 0-21.932-4.722-41.58-14.166-58.942-9.14-17.363-21.783-31.071-37.93-41.123-16.147-10.052-34.426-15.078-54.838-15.078-15.843 0-30.161 3.35-42.957 10.052-6.43 3.45-12.255 7.546-17.474 12.287a82.569 82.569 0 00-2.176 2.049v-19.819h-59.866v312.988h59.409V313.095a77.73 77.73 0 002.176 2.035c5.27 4.747 11.247 8.87 17.931 12.371 12.796 6.397 27.114 9.595 42.957 9.595 20.412 0 38.691-5.026 54.838-15.078s28.79-23.76 37.93-41.123zm-56.308-28.427l.006-.012c4.683-8.779 7.056-18.927 7.056-30.503 0-11.262-2.369-21.095-7.041-29.562l-.021-.039-.02-.039c-4.386-8.771-10.642-15.451-18.784-20.103l-.025-.014-.024-.015c-8.157-4.951-17.508-7.451-28.118-7.451-10.293 0-19.494 2.494-27.661 7.451l-.024.015-.026.014c-8.15 4.657-14.568 11.35-19.26 20.141-4.381 8.475-6.605 18.323-6.605 29.602 0 11.58 2.222 21.733 6.605 30.515 4.694 8.491 10.972 15.199 18.844 20.164 8.155 4.65 17.51 7.001 28.127 7.001 10.623 0 19.984-2.354 28.143-7.01 8.177-4.97 14.44-11.674 18.822-20.142l.006-.013zm-17.724 22.03c-8.53 4.874-18.279 7.311-29.247 7.311s-20.717-2.437-29.247-7.311c-8.226-5.178-14.776-12.184-19.651-21.018-4.569-9.138-6.854-19.647-6.854-31.527 0-11.575 2.285-21.78 6.854-30.614 4.875-9.138 11.577-16.144 20.108-21.018 8.53-5.178 18.127-7.767 28.79-7.767 10.968 0 20.717 2.589 29.247 7.767 8.53 4.874 15.081 11.88 19.65 21.018 4.875 8.834 7.312 19.039 7.312 30.614 0 11.88-2.437 22.389-7.312 31.527-4.569 8.834-11.12 15.84-19.65 21.018zm165.716 60.127l-.014-.004c-12.043-3.396-23.179-8.033-33.398-13.916l-.021-.012-.021-.013c-10.242-6.206-19.104-13.664-26.573-22.377l-1.303-1.52 38.68-39.17 1.544 1.729c7.413 8.301 15.987 14.503 25.732 18.636 9.755 4.138 20.582 6.224 32.51 6.224 9.616 0 16.479-1.364 20.872-3.832l.02-.014.02-.013c2.33-1.229 3.95-2.703 5.01-4.377 1.05-1.665 1.61-3.651 1.61-6.037 0-5.285-2.31-9.326-7.19-12.308l-.02-.014-.03-.015c-4.909-3.179-11.518-5.844-19.906-7.941l-.035-.009-.035-.01a6354.709 6354.709 0 01-26.971-7.77l-.041-.012-.041-.013a171.775 171.775 0 01-26.844-11.569l-.027-.014-.025-.015c-8.826-5.043-16.083-11.826-21.753-20.33l-.025-.038-.024-.039c-5.445-8.968-8.085-20.359-8.085-34.028 0-14.373 3.443-26.98 10.403-37.735l.012-.019.012-.018c7.26-10.73 17.494-19.048 30.61-24.98 13.136-5.942 28.535-8.875 46.139-8.875 18.536 0 35.286 3.243 50.216 9.774 15.27 6.543 27.91 16.371 37.88 29.464l1.16 1.513-39.15 39.144-1.53-1.867c-6.51-7.992-13.85-13.696-22.01-17.194l-.02-.006-.01-.006c-7.93-3.522-16.609-5.296-26.079-5.296-8.64 0-15.059 1.346-19.471 3.818-3.97 2.391-5.772 5.523-5.772 9.542 0 4.619 2.097 8.206 6.674 10.905 5.282 2.931 12.101 5.609 20.503 8.011 8.566 2.142 17.425 4.74 26.585 7.792 9.62 2.795 18.62 6.832 27.01 12.108 8.81 5.354 15.91 12.447 21.26 21.258 5.76 8.973 8.56 20.374 8.56 34.051 0 22.222-8.02 40.07-24.1 53.311l-.01.008-.01.008c-16.04 12.892-37.75 19.214-64.885 19.214-12.689 0-25.221-1.702-37.593-5.104zM1061.03 234.29c-5.18-8.529-12.04-15.383-20.57-20.562-8.22-5.178-17.06-9.138-26.5-11.879-9.14-3.047-17.978-5.636-26.509-7.768-8.53-2.437-15.537-5.178-21.021-8.225-5.179-3.046-7.769-7.31-7.769-12.793 0-4.874 2.285-8.682 6.855-11.423 4.875-2.742 11.729-4.112 20.565-4.112 9.749 0 18.739 1.827 26.959 5.483 7.94 3.402 15.09 8.784 21.45 16.146.47.547.94 1.105 1.4 1.673l36.1-36.096c-9.75-12.794-22.08-22.389-37.01-28.786-14.63-6.397-31.08-9.595-49.356-9.595-17.366 0-32.446 2.894-45.242 8.681-12.796 5.788-22.697 13.86-29.704 24.217-6.703 10.357-10.054 22.541-10.054 36.553 0 13.403 2.59 24.369 7.769 32.898 5.484 8.225 12.491 14.774 21.021 19.648a169.691 169.691 0 0026.505 11.423c9.445 2.741 18.432 5.33 26.963 7.767 8.53 2.133 15.385 4.874 20.568 8.225 5.48 3.351 8.22 8.072 8.22 14.164 0 5.483-2.59 9.596-7.77 12.337-4.872 2.742-12.183 4.112-21.932 4.112-12.187 0-23.307-2.132-33.36-6.397-9.413-3.992-17.757-9.854-25.033-17.584a80.736 80.736 0 01-1.472-1.606l-35.645 36.096c7.311 8.53 15.994 15.84 26.048 21.932 10.053 5.788 21.021 10.357 32.903 13.708 12.186 3.351 24.525 5.026 37.016 5.026 26.805 0 47.985-6.245 63.525-18.734 15.53-12.793 23.3-30.004 23.3-51.631 0-13.403-2.74-24.369-8.22-32.898zm58.38-11.532L1110.09 0h68.52l-9.32 222.758h-49.88zm47.79-2.176l9.14-218.406h-63.98l9.14 218.406h45.7zm-22.85 118.69c-11.51 0-21.08-3.86-28.53-11.636-7.42-7.739-11.12-17.274-11.12-28.464 0-11.19 3.7-20.725 11.12-28.464 7.45-7.776 17.02-11.636 28.53-11.636 11.51 0 21.08 3.86 28.53 11.636 7.42 7.739 11.12 17.274 11.12 28.464 0 11.19-3.7 20.725-11.12 28.464-7.45 7.776-17.02 11.636-28.53 11.636zm-26.96-13.142c7.01 7.311 15.99 10.966 26.96 10.966s19.96-3.655 26.96-10.966c7.01-7.311 10.51-16.297 10.51-26.958 0-10.661-3.5-19.647-10.51-26.958-7-7.311-15.99-10.966-26.96-10.966s-19.95 3.655-26.96 10.966c-7.01 7.311-10.51 16.297-10.51 26.958 0 10.661 3.5 19.647 10.51 26.958z" fill="#fff" fill-opacity=".2"/></svg>